#!OML:ASF H:\ManfredObstacles\Project 1\Capture day 2\Session 1\male.ASF
:FULLY-SPECIFIED
:DEGREES
415
root 1.74017 10.3207 -7.12343 -161.621 8.96843 175.493
lowerback 37.7185 0.684522 -8.6965
upperback 17.676 4.31011 -1.30514
thorax 0.917757 3.89703 1.82654
lowerneck -33.787 0.121369 -0.865311
upperneck 24.7024 0.660236 0.0678921
head 13.9891 0.222606 0.312005
rclavicle 5.56597e-015 -3.02153e-014
rhumerus 34.4153 -24.1417 -95.293
rradius 12.6737
rwrist 68.2145
rhand -8.19809 -4.14601
rfingers 7.12502
rthumb 17.7182 -33.3588
lclavicle 5.56597e-015 -3.02153e-014
lhumerus 29.2202 -3.26743 71.2568
lradius 26.7784
lwrist -41.3889
lhand -2.2168 3.47187
lfingers 7.12502
lthumb 23.4654 32.0609
rfemur -46.158 -4.49296 18.2889
rtibia 118.821
rfoot -16.4377 -23.2567
rtoes -33.2002
lfemur -103.602 2.10407 -26.6032
ltibia 102.843
lfoot 3.65747 15.6308
ltoes -11.5218
416
root 1.69138 10.371 -7.30761 -161.295 9.31423 175.596
lowerback 37.3406 1.06084 -8.24921
upperback 17.1126 4.64843 -1.62962
thorax 0.405353 4.05359 1.12917
lowerneck -32.8324 0.0485772 -0.024055
upperneck 24.5398 0.00233126 0.00491133
head 13.7462 -0.0220722 0.00114732
rclavicle 7.95139e-015 -2.98177e-015
rhumerus 32.1895 -24.4006 -93.4388
rradius 13.1849
rwrist 66.0718
rhand -7.01094 -3.65781
rfingers 7.12502
rthumb 18.8603 -32.7635
lclavicle 7.95139e-015 -2.98177e-015
lhumerus 27.9881 -6.0315 70.0682
lradius 27.8413
lwrist -39.7102
lhand -2.25957 3.58451
lfingers 7.12502
lthumb 23.4244 32.1788
rfemur -45.3532 -4.55774 17.9366
rtibia 117.855
rfoot -14.9263 -23.4427
rtoes -31.3787
lfemur -102.388 2.18978 -27.121
ltibia 102.795
lfoot 2.38844 17.4322
ltoes -10.3836
417
root 1.6428 10.422 -7.49501 -161.001 9.58366 175.759
lowerback 37.012 1.29505 -7.94434
upperback 16.6759 4.8151 -1.84274
thorax 0.0283178 4.11307 0.683818
lowerneck -32.3962 -0.0197047 0.466367
upperneck 24.471 -0.33883 -0.0167946
head 13.6354 -0.125638 -0.158
rclavicle -3.02153e-014 7.25564e-014
rhumerus 29.6774 -22.8533 -90.7301
rradius 13.9214
rwrist 62.9919
rhand -6.20519 -3.39219
rfingers 7.12502
rthumb 19.6351 -32.4206
lclavicle -3.02153e-014 7.25564e-014
lhumerus 26.7872 -8.00739 69.2359
lradius 28.8971
lwrist -38.3292
lhand -2.33839 3.64718
lfingers 7.12502
lthumb 23.3488 32.2511
rfemur -44.4457 -4.7084 17.6892
rtibia 116.818
rfoot -13.3739 -23.679
rtoes -29.4831
lfemur -101.193 2.22784 -27.6606
ltibia 102.831
lfoot 1.06353 19.5471
ltoes -9.0955
418
root 1.59453 10.4735 -7.68581 -160.736 9.73387 175.954
lowerback 36.6956 1.37692 -7.77175
upperback 16.3723 4.80568 -1.9514
thorax -0.201776 4.07908 0.482178
lowerneck -32.417 -0.0030136 0.672539
upperneck 24.4799 -0.421397 -0.00694075
head 13.6424 -0.139197 -0.204663
rclavicle -1.51076e-014 -1.25234e-014
rhumerus 27.1951 -19.9491 -87.7114
rradius 14.8968
rwrist 59.5241
rhand -5.84699 -3.31415
rfingers 7.12502
rthumb 19.9794 -32.307
lclavicle -1.51076e-014 -1.25234e-014
lhumerus 25.6156 -9.28356 68.6731
lradius 29.9355
lwrist -37.1881
lhand -2.46482 3.691
lfingers 7.12502
lthumb 23.2275 32.3102
rfemur -43.445 -5.00382 17.5033
rtibia 115.724
rfoot -11.9775 -23.8211
rtoes -27.7353
lfemur -100.093 2.16395 -28.1697
ltibia 102.948
lfoot -0.115509 21.6798
ltoes -7.99019
419
root 1.5483 10.5237 -7.87932 -160.523 9.76526 176.185
lowerback 36.45 1.37829 -7.57935
upperback 16.1209 4.73104 -2.02805
thorax -0.394537 4.02051 0.324406
lowerneck -32.6003 0.0331664 0.818334
upperneck 24.4995 -0.460725 0.0503822
head 13.6846 -0.131644 -0.213514
rclavicle 2.3059e-014 -4.57205e-015
rhumerus 24.7783 -16.4501 -84.7552
rradius 16.1503
rwrist 55.9628
rhand -5.9045 -3.41601
rfingers 7.12502
rthumb 19.9242 -32.4146
lclavicle 2.3059e-014 -4.57205e-015
lhumerus 24.5016 -10.3491 68.204
lradius 30.9682
lwrist -36.2051
lhand -2.61486 3.74862
lfingers 7.12502
lthumb 23.0835 32.3859
rfemur -42.3422 -5.40708 17.3753
rtibia 114.589
rfoot -10.83 -23.7881
rtoes -26.4533
lfemur -99.0995 2.01781 -28.5673
ltibia 103.171
lfoot -1.08024 23.5886
ltoes -7.13703
